<?xml version="1.0" encoding="UTF-8"?>
<svg id="Layer_1" data-name="Layer 1" xmlns="http://www.w3.org/2000/svg" viewBox="0 0 658.56 514.5">
  <defs>
    <style>
      .cls-1 {
        fill: #fff;
      }

      .cls-2 {
        fill: #7c3aed;
      }
    </style>
  </defs>
  <rect class="cls-2" width="658.56" height="514.5" rx="117.78" ry="117.78"/>
  <g>
    <path class="cls-1" d="m148.74,194.38s77.85-60.3,184.63-66.05l-6.13-6.88s-2.57-7.71,10.81-6.5l47.65,6.58s15.73.91,7.87,9.68l-19.97,19.06s-6.35,6.81-14.97,1.36l-12.1-12.71s-138.7,20.87-176.37,58.99c0,0-77.14,60.59-7.26,111.75,0,0,27.68,18.94,34.94,18.03,0,0,29.95,5.45,5.45-13.16-24.5-18.6-63.53-54.45,7.26-89.39,0,0,64.89-33.13,152.92-45.38,0,0,107.54-15.88,117.98-13.16,0,0,24.05-.91,0-14.52,0,0-88.03-50.82-130.69-60.35,0,0-128.42,15.88-186.5,65.34,0,0-59.5,49.54-15.53,37.31Z"/>
    <path class="cls-1" d="m509.81,320.12s-77.85,60.3-184.63,66.05l6.13,6.88s2.57,7.71-10.81,6.5l-47.65-6.58s-15.73-.91-7.87-9.68l19.97-19.06s6.35-6.81,14.97-1.36l12.1,12.71s138.7-20.87,176.37-58.99c0,0,77.14-60.59,7.26-111.75,0,0-27.68-18.94-34.94-18.03,0,0-29.95-5.45-5.45,13.16,24.5,18.6,63.53,54.45-7.26,89.39,0,0-64.89,33.13-152.92,45.38,0,0-107.54,15.88-117.98,13.16,0,0-24.05.91,0,14.52,0,0,88.03,50.82,130.69,60.35,0,0,128.42-15.88,186.5-65.34,0,0,59.5-49.54,15.53-37.31Z"/>
  </g>
</svg>