<?xml version="1.0" encoding="UTF-8"?>
<svg id="Layer_1" data-name="Layer 1" xmlns="http://www.w3.org/2000/svg" viewBox="0 0 441.99 373.91">
  <defs>
    <style>
      .cls-1 {
        fill: #fff;
      }
    </style>
  </defs>
  <path class="cls-1" d="m22.89,111.87c19.73-13.89,99.09-65.17,202.68-70.74l-6.88-7.73s-2.89-8.67,12.15-7.31l53.53,7.39s17.67,1.02,8.84,10.88l-22.43,21.41s-7.14,7.65-16.82,1.53l-13.59-14.27S84.53,76.47,42.22,119.29c0,0-86.66,68.07-8.16,125.54,0,0,31.1,21.28,39.25,20.26,0,0,33.65,6.12,6.12-14.78-27.53-20.9-71.37-61.18,8.16-100.43,0,0,72.9-37.21,171.8-50.98,0,0,119.72-13.73,132.55-14.78,0,0,27.02-1.02,0-16.31,0,0-98.9-57.1-146.82-67.8,0,0-144.27,17.84-209.53,73.41,0,0-56.07,50.04-27.46,44.8,5.33-.98,10.33-3.22,14.76-6.34Z"/>
  <path class="cls-1" d="m423.79,258.59s-87.46,67.75-207.43,74.2l6.88,7.73s2.89,8.67-12.15,7.31l-53.53-7.39s-17.67-1.02-8.84-10.88l22.43-21.41s7.14-7.65,16.82-1.53l13.59,14.27s155.83-23.45,198.14-66.27c0,0,86.66-68.07,8.16-125.54,0,0-31.1-21.28-39.25-20.26,0,0-33.65-6.12-6.12,14.78,27.53,20.9,71.37,61.18-8.16,100.43,0,0-72.9,37.21-171.8,50.98,0,0-120.82,17.84-132.55,14.78,0,0-27.02,1.02,0,16.31,0,0,98.9,57.1,146.82,67.8,0,0,144.27-17.84,209.53-73.41,0,0,66.85-55.65,17.45-41.92Z"/>
</svg>