<?xml version="1.0" encoding="UTF-8"?>
<svg id="Layer_1" data-name="Layer 1" xmlns="http://www.w3.org/2000/svg" viewBox="0 0 714.15 600.85">
  <defs>
    <style>
      .cls-1 {
        fill: #fff;
      }
    </style>
  </defs>
  <path class="cls-1" d="m29.4,186.32s141.3-109.45,335.12-119.88l-11.12-12.49s-4.67-14,19.63-11.81l86.48,11.94s28.55,1.65,14.28,17.57l-36.24,34.59s-11.53,12.35-27.18,2.47l-21.96-23.06s-251.75,37.89-320.11,107.07c0,0-140.01,109.97-13.18,202.82,0,0,50.24,34.38,63.42,32.73,0,0,54.36,9.88,9.88-23.88-44.48-33.77-115.31-98.83,13.18-162.25,0,0,117.78-60.12,277.56-82.36,0,0,195.2-28.83,214.14-23.88,0,0,43.65-1.65,0-26.36,0,0-159.78-92.24-237.2-109.54,0,0-233.08,28.83-338.5,118.6,0,0-108,89.91-28.19,67.72Z"/>
  <path class="cls-1" d="m684.75,414.53s-141.3,109.45-335.12,119.88l11.12,12.49s4.67,14-19.63,11.81l-86.48-11.94s-28.55-1.65-14.28-17.57l36.24-34.59s11.53-12.35,27.18-2.47l21.96,23.06s251.75-37.89,320.11-107.07c0,0,140.01-109.97,13.18-202.82,0,0-50.24-34.38-63.42-32.73,0,0-54.36-9.88-9.88,23.88,44.48,33.77,115.31,98.83-13.18,162.25,0,0-117.78,60.12-277.56,82.36,0,0-195.2,28.83-214.14,23.88,0,0-43.65,1.65,0,26.36,0,0,159.78,92.24,237.2,109.54,0,0,233.08-28.83,338.5-118.6,0,0,108-89.91,28.19-67.72Z"/>
</svg>